<svg width="165" height="148" fill="none" xmlns="http://www.w3.org/2000/svg"><path d="M85.323 123.613c33.791 0 61.186-27.395 61.186-61.306C146.509 28.395 118.993 1 85.323 1 51.532 1 24.137 28.395 24.137 62.307c0 33.911 27.395 61.306 61.186 61.306ZM154.276 42.882a4.948 4.948 0 1 0 0-9.895 4.948 4.948 0 0 0 0 9.895ZM161.517 23.573a3.38 3.38 0 1 0 0-6.758 3.38 3.38 0 0 0 0 6.758ZM26.912 22.12a3.38 3.38 0 1 0 0-6.759 3.38 3.38 0 0 0 0 6.758ZM6.275 87.288a6.275 6.275 0 1 0 0-12.551 6.275 6.275 0 0 0 0 12.551Z" fill="#E0E6F8"/><g filter="url(#a)"><path d="M121.099 107.854h17.52c2.201 0 4.087-1.885 4.087-4.085V22.073c0-2.2-1.886-4.085-4.087-4.085h-16.976" fill="url(#b)"/></g><g filter="url(#c)"><path d="M51.536 107.854H34.56c-2.201 0-4.087-1.885-4.087-4.085V22.073c0-2.2 1.886-4.085 4.087-4.085h16.626" fill="url(#d)"/></g><path d="M42.283 34.327h8.488M42.283 45.325h8.488M42.283 56.636h8.488M42.283 67.948h8.488M42.283 89.944h8.488" stroke="#DADDE2" stroke-width="2" stroke-miterlimit="10" stroke-linecap="round"/><path d="M129.816 34.327h-8.173" stroke="#DADDE2" stroke-width="2" stroke-miterlimit="10"/><path d="M129.816 45.325h-8.173M129.816 56.636h-8.173M129.816 67.948h-8.173M129.816 89.944h-8.173" stroke="#DADDE2" stroke-width="2" stroke-miterlimit="10" stroke-linecap="round"/><g filter="url(#e)"><path d="M117.556 114.767H55.309c-2.201 0-4.087-1.886-4.087-4.085V15.788c0-2.2 1.886-4.085 4.087-4.085h62.247c2.2 0 4.087 1.886 4.087 4.085v94.894c0 2.199-1.887 4.085-4.087 4.085Z" fill="url(#f)"/></g><path d="M110.01 42.447H66.626c-.943 0-1.572-.57-1.572-1.424v-3.701c0-.855.629-1.424 1.572-1.424h43.384c.944 0 1.572.57 1.572 1.424v3.701c0 .57-.628 1.424-1.572 1.424ZM110.01 59.414H66.626c-.943 0-1.572-.569-1.572-1.423v-3.702c0-.854.629-1.423 1.572-1.423h43.384c.944 0 1.572.57 1.572 1.423v3.702c0 .854-.628 1.423-1.572 1.423ZM110.01 76.696H66.626c-.943 0-1.572-.57-1.572-1.423V71.57c0-.854.629-1.423 1.572-1.423h43.384c.944 0 1.572.57 1.572 1.423v3.702c0 .854-.628 1.423-1.572 1.423ZM110.011 94.293h-17.29c-.944 0-1.573-.57-1.573-1.424v-3.702c0-.854.629-1.423 1.572-1.423h17.291c.943 0 1.572.57 1.572 1.423v3.702c0 .854-.629 1.424-1.572 1.424Z" fill="#DAE3F2"/><path d="M105.547 125.569c-.392 1.668-.981 3.434-1.668 4.906-1.864 3.631-4.808 6.477-8.439 8.341-3.729 1.865-8.144 2.65-12.56 1.668-10.402-2.158-17.074-12.364-14.915-22.765 2.158-10.402 12.265-17.173 22.667-14.916 3.729.785 6.967 2.65 9.715 5.201 4.612 4.612 6.574 11.285 5.2 17.565Z" fill="url(#g)"/><path d="M92.889 119.976h-4.416v-4.416c0-.883-.687-1.668-1.668-1.668-.883 0-1.668.687-1.668 1.668v4.416H80.72c-.883 0-1.668.687-1.668 1.668 0 .981.687 1.668 1.668 1.668h4.416v4.416c0 .883.687 1.668 1.668 1.668.883 0 1.668-.687 1.668-1.668v-4.416h4.416c.883 0 1.668-.687 1.668-1.668 0-.981-.785-1.668-1.668-1.668Z" fill="#fff"/><defs><linearGradient id="b" x1="131.895" y1="15.909" x2="131.895" y2="108.823" gradientUnits="userSpaceOnUse"><stop stop-color="#fff"/><stop offset=".996" stop-color="#F8F9FC"/></linearGradient><linearGradient id="d" x1="40.998" y1="15.909" x2="40.998" y2="108.823" gradientUnits="userSpaceOnUse"><stop stop-color="#fff"/><stop offset=".996" stop-color="#F8F9FC"/></linearGradient><linearGradient id="f" x1="86.409" y1="9.319" x2="86.409" y2="115.878" gradientUnits="userSpaceOnUse"><stop stop-color="#fff"/><stop offset=".996" stop-color="#F8F9FC"/></linearGradient><linearGradient id="g" x1="67.541" y1="121.643" x2="105.985" y2="121.643" gradientUnits="userSpaceOnUse"><stop stop-color="#7E92B7"/><stop offset="1" stop-color="#969EAE"/></linearGradient><filter id="a" x="99.099" y="6.988" width="65.607" height="133.866" filterUnits="userSpaceOnUse" color-interpolation-filters="sRGB"><feFlood flood-opacity="0" result="BackgroundImageFix"/><feColorMatrix in="SourceAlpha" values="0 0 0 0 0 0 0 0 0 0 0 0 0 0 0 0 0 0 127 0" result="hardAlpha"/><feOffset dy="11"/><feGaussianBlur stdDeviation="11"/><feColorMatrix values="0 0 0 0 0.397708 0 0 0 0 0.47749 0 0 0 0 0.575 0 0 0 0.27 0"/><feBlend in2="BackgroundImageFix" result="effect1_dropShadow_3_1038"/><feBlend in="SourceGraphic" in2="effect1_dropShadow_3_1038" result="shape"/></filter><filter id="c" x="8.473" y="6.988" width="65.064" height="133.866" filterUnits="userSpaceOnUse" color-interpolation-filters="sRGB"><feFlood flood-opacity="0" result="BackgroundImageFix"/><feColorMatrix in="SourceAlpha" values="0 0 0 0 0 0 0 0 0 0 0 0 0 0 0 0 0 0 127 0" result="hardAlpha"/><feOffset dy="11"/><feGaussianBlur stdDeviation="11"/><feColorMatrix values="0 0 0 0 0.397708 0 0 0 0 0.47749 0 0 0 0 0.575 0 0 0 0.27 0"/><feBlend in2="BackgroundImageFix" result="effect1_dropShadow_3_1038"/><feBlend in="SourceGraphic" in2="effect1_dropShadow_3_1038" result="shape"/></filter><filter id="e" x="29.222" y=".703" width="114.421" height="147.063" filterUnits="userSpaceOnUse" color-interpolation-filters="sRGB"><feFlood flood-opacity="0" result="BackgroundImageFix"/><feColorMatrix in="SourceAlpha" values="0 0 0 0 0 0 0 0 0 0 0 0 0 0 0 0 0 0 127 0" result="hardAlpha"/><feOffset dy="11"/><feGaussianBlur stdDeviation="11"/><feColorMatrix values="0 0 0 0 0.397708 0 0 0 0 0.47749 0 0 0 0 0.575 0 0 0 0.27 0"/><feBlend in2="BackgroundImageFix" result="effect1_dropShadow_3_1038"/><feBlend in="SourceGraphic" in2="effect1_dropShadow_3_1038" result="shape"/></filter></defs></svg>